
<svg width="1024px" height="1024px" viewBox="0 0 1024 1024" version="1.1" xmlns="http://www.w3.org/2000/svg" xmlns:xlink="http://www.w3.org/1999/xlink">
    <!-- Generator: Sketch 49.3 (51167) - http://www.bohemiancoding.com/sketch -->
    <desc>Created with Sketch.</desc>
    <defs></defs>
    <g id="Page-1" stroke="none" stroke-width="1" fill="none" fill-rule="evenodd">
        <g id="Artboard" fill-rule="nonzero">
            <g id="Group" transform="translate(0.000000, 71.000000)">
                <g id="cropped-logo-web">
                    <g id="#fffffeff" transform="translate(51.147808, 300.651163)">
                        <path d="M264.318484,16.2750117 C277.92524,19.6744399 280.482539,9.31032941 283.522346,0.770302379 C284.680368,5.62070608 285.83839,10.4711098 287.044662,15.280057 C292.834772,15.9433601 298.624881,16.6895761 304.41499,17.435792 C301.133928,18.2649209 294.523553,19.8402657 291.242492,20.6279381 C291.966255,26.2245577 292.73827,31.7797209 293.510284,37.3348841 C289.312455,33.9354559 285.114626,30.5360277 280.868546,27.1780559 C276.429462,30.7018534 271.942128,34.2671074 267.406542,37.7494486 C269.481331,33.4379786 271.604371,29.1265086 273.727411,24.8150387 C270.591102,21.9960006 267.454793,19.1355061 264.318484,16.2750117 Z" id="Shape" fill="#F6DB70"></path>
                        <path d="M253.848036,41.6878105 C254.234044,43.8020891 255.006058,47.9891897 255.392066,50.1034683 C257.563357,49.6889038 262.00244,48.8183186 264.221982,48.4037541 C258.914382,52.798137 257.75636,57.8143665 262.726204,63.2451603 C259.8794,60.7992303 256.984346,58.3947566 254.089291,55.990283 C252.738266,57.5656278 250.084466,60.6334045 248.73344,62.2087493 C247.189411,58.3533002 245.693633,54.4978511 244.149604,50.6838584 C246.562149,48.4452106 251.435491,43.9264584 253.848036,41.6878105 Z" id="Shape" fill="#F2DF63"></path>
                        <path d="M484.632138,173.35347 C522.605604,161.745666 567.237696,169.74676 597.056758,192.837998 C657.563399,238.274258 667.69609,318.865581 638.311286,380.469854 C621.712973,415.956568 585.47654,446.136858 540.699695,452.935714 C514.595953,457.827574 487.720196,451.650565 464.318505,441.618106 C464.222003,434.985075 464.608011,428.310588 465.042269,421.677557 C489.215975,453.225909 553.003677,455.340188 575.633354,421.636101 C596.719002,388.222209 595.995238,348.838589 597.201511,311.900899 C596.043489,274.83884 596.912005,235.496676 576.308867,201.792589 C555.126717,167.052091 486.369171,167.093547 465.814283,202.290067 C453.172545,221.277117 450.566996,243.456313 447.382436,264.723468 C444.921639,263.106667 442.509094,261.448409 440.096548,259.831608 C436.622483,242.710097 430.928875,226.003151 425.476523,209.337662 C442.364341,194.413343 460.989192,179.654849 484.632138,173.35347 Z" id="Shape" fill="#FFFFFE"></path>
                        <path d="M778.287175,171.280648 C788.178612,171.322104 798.118299,171.446474 808.057986,171.529387 C840.675602,261.075301 875.512758,349.957913 908.612883,439.338001 C914.885501,439.462371 921.158119,439.545284 927.430737,439.669653 C927.189483,441.783931 926.706974,445.929576 926.465719,448.043854 C892.159322,447.712203 857.852925,448.20968 823.594779,447.62929 C826.875841,433.699925 847.527231,441.866844 859.1557,439.379458 C846.610463,405.385175 834.354732,371.266524 820.940979,337.52098 C788.564619,337.852632 756.188258,337.52098 723.811898,337.769719 C710.928905,371.764001 696.88789,405.426632 684.342654,439.503827 C698.238916,439.835479 712.183429,439.172176 726.079691,440.250043 C726.948207,442.074127 728.733491,445.76375 729.602007,447.62929 C701.905985,447.670746 674.209963,448.251136 646.51394,447.587833 C645.790177,445.556468 644.246148,441.535193 643.522384,439.545284 C652.641806,439.58674 661.85773,439.711109 671.025403,439.918392 C706.731076,350.372477 742.340247,260.74365 778.287175,171.280648 Z M774.185848,211.534853 C758.4078,250.83556 742.147244,289.970441 727.430716,329.561343 C757.539284,329.6028 787.696103,329.6028 817.852921,329.561343 C804.342666,289.928985 787.840855,251.125755 774.185848,211.534853 Z" id="Shape" fill="#FFFFFE"></path>
                        <path d="M0.434258188,182.266605 C0.965018196,180.235239 2.02653821,176.131052 2.55729822,174.099686 C46.8516334,174.597163 91.1459686,174.306968 135.440304,174.265512 C166.610392,174.099686 199.565763,180.732717 223.305211,198.973551 C256.357084,224.718002 253.606782,277.077488 215.247309,298.095904 C174.620043,320.150731 124.197842,314.844306 78.4077284,315.549066 C78.5524812,356.922595 78.4077284,398.296124 78.5042303,439.711109 C92.4004923,439.669653 106.248503,439.669653 120.144765,439.628196 C120.241267,441.742475 120.482522,445.971032 120.579024,448.085311 C80.8202739,447.546377 41.0615242,447.919485 1.25452365,447.836572 C1.20627275,445.846663 1.10977093,441.825388 1.06152002,439.835479 C10.711702,439.628196 20.313633,439.379458 29.9155641,438.964893 C29.5295568,353.523167 29.5778077,268.039983 29.9155641,182.598257 C20.0723785,182.515344 10.2291929,182.432431 0.434258188,182.266605 Z M78.4077284,306.428649 C107.454776,305.267868 138.045853,310.118272 165.693624,300.458921 C187.985545,291.918894 193.823905,268.910569 194.11341,249.923518 C194.933676,228.200343 188.612806,201.999871 164.487352,190.682263 C138.528362,177.789309 107.406525,184.215058 78.9867393,182.183692 C77.7322157,223.598678 78.8419866,265.013663 78.4077284,306.428649 Z" id="Shape" fill="#FFFFFE"></path>
                        <path d="M256.791342,174.306968 C290.08447,174.63862 323.377598,173.809491 356.670725,174.63862 L358.311256,182.639713 C350.108602,182.515344 341.954198,182.390974 333.799794,182.266605 C333.510289,203.823955 333.60679,225.422761 334.13755,246.980111 C348.757576,250.1308 363.2811,253.613142 377.852875,256.971113 C378.721391,260.287629 379.638158,263.562688 380.554926,266.879203 C364.969882,263.231036 349.336587,259.665782 333.703292,256.017615 C333.799794,276.870206 333.60679,297.681339 333.799794,318.492473 C357.876998,311.196139 381.761198,303.360872 405.838402,296.105995 C415.536835,293.494239 425.090515,290.467918 434.258188,286.736839 C437.104992,286.363731 442.750348,285.576058 445.548901,285.161494 C446.899927,274.880296 460.31368,271.190673 468.468083,278.984484 C479.807047,287.939076 457.418625,288.519466 451.146007,292.250545 C431.942145,298.095904 412.786533,304.148544 393.53442,309.91099 C375.922838,315.300327 358.311256,320.731121 340.699674,326.120459 C358.649013,330.224646 376.791355,333.7899 394.59594,338.557391 C396.332973,340.878952 399.758788,345.604986 401.44757,347.968003 C397.394493,347.387613 389.28834,346.226833 385.235264,345.646443 C368.154442,341.749537 351.07362,337.728262 333.944547,333.955726 C333.462038,352.528212 333.462038,371.100698 333.944547,389.71464 C356.525973,384.159477 378.962646,378.272662 401.44757,372.468761 C423.015726,366.913597 445.211145,362.80941 465.476527,354.18647 C470.205116,356.425118 474.837203,358.746678 479.517542,361.068239 C476.043476,362.187563 469.095345,364.343298 465.62128,365.421165 C445.211145,371.390893 424.221999,375.743819 403.667111,381.340439 C380.458424,387.26871 357.346238,393.44572 333.992798,398.917971 C333.751543,412.391314 333.703292,425.864658 333.655041,439.338001 C344.559747,440.415869 359.324525,436.311681 364.921631,447.297638 C327.671928,448.168224 290.325724,448.334049 253.076022,447.131812 C258.866131,436.270225 273.823913,440.581695 284.680368,439.338001 C284.24611,353.60608 285.018124,267.874158 284.24611,182.142236 C275.030186,182.308062 265.814262,182.473887 256.598338,182.639713 L256.791342,174.306968 Z" id="Shape" fill="#FFFFFE"></path>
                    </g>
                    <g id="#30a54dff" transform="translate(251.563710, 0.000000)" fill="#30A54D">
                        <path d="M278.481919,0 L279.349653,0 C279.156823,1.32515741 278.771163,3.93406107 278.578334,5.21780731 C344.381482,22.9003765 411.245195,54.9526214 443.688798,109.532542 C456.656598,129.451315 459.838289,152.434514 463.164602,174.713723 C513.396749,187.054251 551.625245,218.485328 589.468081,247.680202 C595.590426,266.066762 611.884539,279.81527 620.947536,297.000905 C637.964761,328.556216 653.825007,362.057852 652.282369,397.547224 C620.369047,350.048613 571.342086,312.695738 516.096365,286.026945 C509.106287,319.569992 496.620562,354.106907 466.876574,378.125385 C450.727084,393.199051 427.87676,400.321772 405.267473,405.042645 C411.727269,386.034919 415.053582,365.867679 410.184631,346.280196 C404.447946,323.338408 395.095704,301.183433 389.985716,278.117412 C359.759654,309.879779 322.784551,338.99183 275.878717,350.66978 C259.536397,355.307831 242.229928,353.320095 225.64657,351.125303 C245.218789,319.735637 253.896127,284.743199 263.151954,250.371928 C264.116103,249.336649 266.044401,247.307502 267.008549,246.272223 C274.14325,233.558994 278.240882,219.893308 282.434928,206.351856 C271.636463,208.422414 260.404131,210.03745 249.653873,206.890201 C210.60585,197.241399 175.84829,178.026616 143.934968,156.824097 C145.863265,156.658453 149.671653,156.285752 151.551743,156.120108 C131.979524,156.244341 117.276256,144.069457 102.042707,135.248878 C118.047575,132.267274 134.389896,130.900706 150.780424,131.149173 C104.98336,96.488024 60.2950682,56.5262458 0.566056353,40.4173011 C0.517848918,37.8912197 0.517848918,35.3651384 0.517848918,32.7976459 C21.5362905,27.911128 43.1814288,23.5629552 65.1158117,25.5506913 C113.275039,29.1948742 155.55296,51.8467837 191.853158,77.8529979 C159.698799,54.3728651 134.148859,24.5154121 98.7163939,4.34817276 C174.835934,8.94481253 256.210084,31.8866002 305.478082,84.5616073 C306.345816,70.2333428 308.804395,55.5323778 303.839029,41.5354026 C299.548568,26.8344376 286.387938,16.0261224 275.252021,4.92792913 L264.067896,8.9862237 C268.792224,5.88038601 273.56476,2.89878184 278.481919,0 Z" id="Shape"></path>
                    </g>
                    <g id="#363571ff" transform="translate(0.000000, 155.782946)" fill="#363571">
                        <path d="M123.236321,142.001003 C193.556455,72.0851658 289.649377,19.9901999 395.250237,0.594460754 C427.200772,21.8137309 461.998861,41.0436944 501.092416,50.7001201 C486.85464,70.5102981 467.693972,87.1707407 453.311405,106.856587 C430.386173,137.152068 412.528623,170.928836 406.447403,206.90213 C399.063065,244.284516 404.179012,282.288561 407.847049,319.753834 C374.545133,318.924957 341.243216,319.753834 307.941299,319.422283 L307.748245,327.752505 C316.966601,327.586729 326.184958,327.420954 335.403315,327.255178 C336.175533,412.961136 335.403315,498.667095 335.837688,584.373053 C324.978367,585.616369 310.016636,581.306205 304.224999,592.164504 C341.484534,593.366376 378.840597,593.200601 416.100133,592.330279 C410.50155,581.347649 395.732874,585.450594 384.82529,584.373053 C384.873553,570.90379 384.921817,557.434526 385.163135,543.965263 C408.52274,538.49467 431.641027,532.319531 454.855842,526.393055 C454.711051,590.175197 412.962996,644.79824 378.116643,698.42663 C408.281422,699.131176 438.494465,698.592405 468.659245,699.587059 C487.289013,662.909219 495.735151,622.998755 515.523246,586.652467 C538.931115,596.681887 565.813967,602.857026 591.9246,597.966648 C636.713264,591.16985 672.959264,560.998701 689.561958,525.522733 C718.954519,463.937117 708.819153,383.370201 648.29654,337.947701 C618.469606,314.863456 573.825732,306.864786 535.842242,318.469074 C512.193055,324.768545 493.563287,339.522569 476.67101,354.442368 C464.025935,313.993134 449.93295,273.00513 451.477386,230.732365 C453.456196,206.570579 456.062433,182.035798 466.487381,159.283104 C477.298438,135.287093 489.750459,110.047766 514.606237,94.2162014 C505.339617,128.614628 496.65216,163.634712 477.057119,195.049178 C493.659814,197.245704 510.986463,199.235011 527.34784,194.593296 C574.308369,182.90612 611.326586,153.771067 641.587893,121.983606 C646.703839,145.067851 656.066987,167.24033 661.810361,190.200244 C666.684989,209.803202 663.354798,229.986375 656.887469,249.009119 C679.52312,244.284516 702.400088,237.156168 718.56841,222.070593 C748.347081,198.033138 760.847365,163.468937 767.845594,129.899388 C823.155734,156.589251 872.239863,193.971637 904.190397,241.507776 C905.734834,205.990365 889.856094,172.46226 872.819027,140.882018 C863.745461,123.682805 847.432348,109.923435 841.302865,91.5223488 C931.941995,156.423476 994.829527,249.133451 1015.67942,348.888887 C1035.51578,442.717847 1019.39572,542.22462 968.284521,627.060256 C916.256309,715.045628 828.802581,787.323767 723.925675,827.897333 C620.062306,868.761005 499.934088,878.500319 389.07249,854.462864 C278.548738,831.378619 177.87077,775.139265 108.226327,697.970747 C38.2923023,621.755439 -0.222088189,525.025407 0.0192300469,428.046711 C-0.55993372,324.105443 44.1322036,220.661501 123.236321,142.001003 Z M281.058448,110.918088 C277.583465,111.664078 270.585236,113.07317 267.110254,113.777716 C270.1026,116.968895 273.046683,120.160075 276.039029,123.351254 C275.122019,127.827194 274.253274,132.303134 273.336264,136.779073 C278.210893,134.665435 283.085521,132.551797 287.960149,130.438159 C293.027832,132.386021 298.095515,134.29244 303.163198,136.240303 C302.535771,131.598588 301.86008,126.956872 301.232652,122.356601 C304.176735,119.331197 307.120817,116.347237 310.0649,113.321833 C306.300335,112.658731 298.771206,111.373971 295.006642,110.710868 C293.896578,108.224235 291.628187,103.292413 290.518123,100.847223 C287.380986,104.204178 284.195585,107.561133 281.058448,110.918088 Z M315.470428,161.438186 C318.607565,164.297814 321.744703,167.157443 324.88184,169.975627 C322.758239,174.285791 320.634639,178.595955 318.559302,182.90612 C323.096085,179.424833 327.584604,175.860659 332.024859,172.337928 C336.27206,175.694883 340.470998,179.093282 344.669935,182.491681 C343.897717,176.9382 343.125498,171.384719 342.401544,165.789794 C345.683472,165.00236 352.295591,163.427493 355.577519,162.598615 C349.785882,161.852625 343.994244,161.106635 338.202606,160.443533 C336.996015,155.636042 335.837688,150.787107 334.67936,145.938172 C331.63875,154.475613 329.080777,164.836585 315.470428,161.438186 Z M226.665317,161.521074 C221.211525,162.557171 215.757733,163.593268 210.352205,164.629365 C214.309824,167.323218 218.315707,170.017071 222.321589,172.710923 C221.694162,177.518414 221.066734,182.325905 220.487571,187.17484 C225.120881,185.019758 229.754191,182.90612 234.387501,180.792481 C239.069075,182.947563 243.798912,185.102646 248.480486,187.216284 C247.756531,182.90612 247.08084,178.554511 246.356886,174.244347 C249.204441,170.804505 252.051996,167.323218 254.899551,163.883375 C251.472832,163.178829 244.619394,161.852625 241.192675,161.148079 C239.551711,158.620002 236.366311,153.522404 234.77361,150.994327 C232.746537,153.605291 228.692391,158.910109 226.665317,161.521074 Z M304.997217,186.843289 C302.584035,189.081259 297.709406,193.598642 295.296224,195.836612 C296.840661,199.64945 298.336834,203.503731 299.88127,207.358013 C301.232652,205.783145 303.887153,202.716298 305.238535,201.14143 C308.134354,203.545175 311.030173,205.948921 313.877728,208.39411 C308.906572,202.964961 310.0649,197.950251 315.373901,193.557199 C313.153773,193.971637 308.713518,194.841959 306.541654,195.256398 C306.155545,193.14276 305.383326,188.956927 304.997217,186.843289 Z M280.28623,252.573294 C276.811247,252.987732 269.813018,253.858054 266.289772,254.272493 C269.668227,257.670892 273.046683,261.027847 276.425138,264.426245 C275.556392,268.985073 274.639383,273.585344 273.770637,278.185616 C278.403947,275.947646 282.988994,273.709676 287.622304,271.51315 C292.448669,273.295237 297.22677,275.077324 302.053134,276.859411 C302.053134,273.046574 302.053134,265.462342 302.053134,261.690949 C305.045481,259.411535 308.08609,257.173565 311.1267,254.894151 C305.817699,253.899498 300.508698,252.946289 295.199697,251.951635 C293.993105,249.174895 291.531659,243.621414 290.325068,240.80323 C286.946613,244.740399 283.616421,248.636124 280.28623,252.573294 Z M829.574799,316.39688 C793.618382,405.832788 757.99981,495.434471 722.284711,584.953267 C713.114618,584.746048 703.896261,584.621716 694.774432,584.580272 C695.498387,586.569579 697.042824,590.589636 697.766778,592.620386 C725.470112,593.283489 753.173445,592.703274 780.876779,592.66183 C780.008033,590.796855 778.222278,587.108349 777.353533,585.284818 C763.453602,584.207277 749.505408,584.870379 735.605478,584.538828 C748.154026,550.471953 762.198747,516.819517 775.085141,482.83553 C807.470048,482.586866 839.854956,482.918417 872.239863,482.586866 C885.657157,516.32219 897.916123,550.430509 910.464672,584.414497 C898.833133,586.90113 878.176292,578.736684 874.894364,592.66183 C909.161553,593.242045 943.477006,592.744718 977.79246,593.076269 C978.033778,590.962631 978.516414,586.818242 978.757732,584.704604 C972.483458,584.580272 966.209184,584.497384 959.93491,584.373053 C926.826048,495.020032 891.979695,406.164339 859.353469,316.645543 C849.411158,316.562655 839.468847,316.438323 829.574799,316.39688 Z M51.5165417,327.37951 C61.314062,327.545285 71.1598461,327.628173 81.0056301,327.711061 C80.6677846,413.126912 80.6195209,498.584207 81.0056301,584.000058 C71.4011643,584.414497 61.7966985,584.66316 52.1439691,584.870379 C52.1922327,586.859686 52.28876,590.879743 52.3370237,592.86905 C92.1545326,592.951937 131.923778,592.578942 171.693023,593.117713 C171.596496,591.004075 171.355178,586.776798 171.25865,584.66316 C157.35872,584.704604 143.507053,584.704604 129.607123,584.746048 C129.510596,543.343605 129.655387,501.982605 129.510596,460.621606 C175.312797,459.91706 225.748308,465.221878 266.386299,443.17373 C304.755899,422.161679 307.506927,369.81805 274.446328,344.081396 C250.700614,325.846086 217.736543,319.215064 186.558227,319.380839 C142.252198,319.422283 97.9461703,319.712391 53.6401421,319.215064 C53.109242,321.245814 52.0474418,325.348759 51.5165417,327.37951 Z" id="Shape"></path>
                        <path d="M517.019419,347.396907 C537.579733,312.211047 606.35543,312.169603 627.543171,346.89958 C648.151749,380.593461 647.283003,419.923709 648.441331,456.974544 C647.23474,493.901048 647.958694,533.27274 626.86748,566.676513 C604.23183,600.370393 540.427288,598.256755 516.247201,566.717957 C517.839901,547.98532 517.743374,529.211239 516.826365,510.478602 C520.301347,509.401061 527.251313,507.245979 530.726295,506.126994 C526.044721,503.806137 521.411411,501.485279 516.681574,499.247309 C509.828136,478.981248 506.884053,458.010641 502.347271,437.330142 C508.621545,433.600192 531.015877,433.019978 519.67392,424.068098 C511.517364,416.276647 498.10007,419.965153 496.748687,430.243237 C493.949396,430.657676 488.302549,431.44511 485.454994,431.818105 C490.329622,428.129599 494.625087,423.943766 498.244861,419.302051 C494.914669,414.826111 492.598014,410.01862 491.294895,404.921022 C493.708078,406.537334 496.12126,408.195089 498.582706,409.811401 C501.768107,388.550687 504.374344,366.378207 517.019419,347.396907 Z" id="Shape"></path>
                        <path d="M384.97008,327.37951 C393.126637,327.503841 401.283193,327.628173 409.488013,327.752505 C414.652224,352.784612 422.036562,377.402281 429.03479,402.061394 C414.459169,398.704439 399.931811,395.223153 385.307926,392.073417 C384.777026,370.522596 384.680499,348.930331 384.97008,327.37951 Z" id="Shape"></path>
                        <path d="M129.510596,451.503951 C129.944968,410.101508 128.834905,368.699065 130.089759,327.296622 C158.517048,329.327372 189.6471,322.90357 215.612942,335.792619 C239.744766,347.1068 246.067304,373.299336 245.246822,395.015933 C244.95724,413.997233 239.117338,436.998591 216.819533,445.536031 C189.164464,455.192457 158.565311,450.343522 129.510596,451.503951 Z" id="Shape"></path>
                        <path d="M825.472389,356.638894 C839.131001,396.217806 855.637168,435.009284 869.15099,474.62964 C838.98621,474.671084 808.821431,474.671084 778.704915,474.62964 C793.425327,435.050728 809.690176,395.927699 825.472389,356.638894 Z" id="Shape"></path>
                        <path d="M384.873553,401.108185 C400.510975,404.755247 416.148397,408.319421 431.737555,411.966483 C434.778164,422.70045 438.15662,433.310085 441.583339,443.961164 C445.44443,443.256618 453.166614,441.888969 457.027706,441.184423 C432.944146,448.437103 409.05364,456.269998 384.97008,463.564122 C384.777026,442.759291 384.97008,421.95446 384.873553,401.108185 Z" id="Shape"></path>
                        <path d="M391.871782,471.189797 C409.488013,465.802092 427.104244,460.372943 444.720476,454.985238 C446.36144,464.434444 448.629831,474.132313 445.782276,483.622964 C427.97299,478.856917 409.825859,475.292742 391.871782,471.189797 Z" id="Shape"></path>
                        <path d="M385.114871,479.022692 C402.248466,482.794086 419.333797,486.814143 436.419128,490.709868 C442.500348,492.823506 448.48504,495.10292 454.517996,497.382334 C453.890569,504.096244 453.263141,510.810153 452.635714,517.524063 C430.144854,523.326207 407.702258,529.211239 385.114871,534.76472 C384.632235,516.156415 384.632235,497.589553 385.114871,479.022692 Z" id="Shape"></path>
                        <path d="" id="Shape"></path>
                        <path d="" id="Shape"></path>
                    </g>
                    <g id="#a4764eff" transform="translate(210.854230, 206.387597)">
                        <path d="M290.850799,0.966730572 C301.617686,4.11410507 312.867394,2.499005 323.682563,0.428363881 C319.482028,13.9703568 315.378058,27.6365882 308.232321,40.3503246 C307.266681,41.3856452 305.335401,43.4148735 304.369761,44.450194 C279.504528,60.2698922 267.047771,85.490301 256.232602,109.468325 C245.803688,132.203965 243.19646,156.720355 241.216898,180.864031 C239.671874,223.10511 253.770219,264.062391 266.420105,304.481306 C271.875971,321.12926 277.573248,337.818627 281.049552,354.922123 C282.353166,360.0159 284.670703,364.819788 288.002161,369.292372 C284.381011,373.930609 280.083912,378.113304 275.20743,381.799045 C266.033849,385.526199 256.474012,388.549335 246.769329,391.158343 C242.906768,391.862361 235.181647,393.228984 231.319087,393.933002 C227.891064,383.289906 224.511324,372.688224 221.469558,361.962303 C220.5522,358.649277 219.634842,355.377664 218.765766,352.064638 C211.764875,327.424009 204.377728,302.824793 199.211553,277.811448 L197.569965,269.818773 C193.900533,232.381582 188.78264,194.406024 196.169787,157.051658 C202.25332,121.105328 220.117662,87.353878 243.051614,57.0811048 C257.439652,37.4100142 276.607608,20.7620597 290.850799,0.966730572 Z" id="Shape" fill="#A4764E"></path>
                        <path d="M70.7331376,61.1395614 C73.8714679,57.7851228 77.0580803,54.4306842 80.1964106,51.0762456 C81.3068967,53.5196021 83.576151,58.447728 84.6866371,60.9324973 C88.4526335,61.5951025 95.9846263,62.8789 99.7506227,63.5415051 C96.8054204,66.5646412 93.8602181,69.5463644 90.9150158,72.5695004 C91.5426818,77.1663237 92.2186299,81.8045598 92.846296,86.4427959 C87.7766854,84.4963932 82.7070749,82.5914034 77.6374643,80.6450008 C72.7609818,82.7570547 67.8844993,84.8691086 63.0080168,86.9811626 C63.9253749,82.5085778 64.794451,78.0359929 65.7118091,73.5634081 C62.7183247,70.3746208 59.7731224,67.1858335 56.7796381,63.9970462 C60.2559425,63.2930282 67.2568332,61.8849922 70.7331376,61.1395614 Z" id="Shape" fill="#F6DB70"></path>
                        <path d="M16.3193178,111.704618 C18.347162,109.09561 22.4028504,103.794768 24.4306946,101.185761 C26.0240008,103.711943 29.2106131,108.80572 30.8522013,111.331902 C34.2802237,112.03592 41.1362684,113.36113 44.5642908,114.065148 C41.7156525,117.502413 38.8670142,120.98109 36.0183759,124.418354 C36.7426059,128.725287 37.418554,133.073634 38.1427841,137.380567 C33.4594296,135.268513 28.7277931,133.115047 24.0444386,130.96158 C19.4093661,133.073634 14.7742936,135.185688 10.1392211,137.339155 C10.7186052,132.493854 11.3462712,127.689967 11.9739373,122.88608 C7.96653086,120.194246 3.95912443,117.502413 0,114.810579 C5.40758458,113.775259 10.8634512,112.739938 16.3193178,111.704618 Z" id="Shape" fill="#F2DF63"></path>
                        <path d="M69.9606255,202.688588 C73.2920839,198.75437 76.6235422,194.861565 80.0032826,190.927347 C81.2103327,193.743419 83.672715,199.292737 84.8797651,202.067396 C90.1907857,203.061304 95.5018063,204.013799 100.812827,205.007706 C97.7710605,207.285411 94.7292942,209.521704 91.7358099,211.799409 C91.7358099,215.567976 91.7358099,223.146522 91.7358099,226.956502 C86.9076093,225.175751 82.1276908,223.394999 77.2994903,221.614248 C72.6644178,223.809128 68.0776273,226.04542 63.4425548,228.281712 C64.3116309,223.684889 65.228989,219.088066 66.0980651,214.532655 C62.7183247,211.136804 59.3385844,207.782365 55.958844,204.386514 C59.4834304,203.972386 66.4843211,203.102716 69.9606255,202.688588 Z" id="Shape" fill="#F6DB70"></path>
                        <path d="M234.457417,404.948813 C253.721937,399.19243 272.889893,393.146158 292.106131,387.30695 C296.64464,407.971949 299.589842,428.926837 306.445887,449.177707 C286.167445,457.791574 263.957722,461.891443 242.375666,467.440761 C243.003332,460.731884 243.630998,454.023007 244.258664,447.31413 C238.223414,445.036425 232.236445,442.758719 226.152912,440.646665 C230.208601,441.226445 238.319978,442.386004 242.375666,442.965783 C240.685796,440.605253 237.257774,435.884191 235.519621,433.565073 C238.36826,424.081536 236.099005,414.390936 234.457417,404.948813 Z" id="Shape" fill="#A4764E"></path>
                        <path d="M244.596638,476.303105 C265.164773,470.712374 286.167445,466.364028 306.590733,460.400582 C307.508091,479.119177 307.604655,497.879186 306.011349,516.597782 C305.576811,523.223833 305.190555,529.891298 305.287119,536.517349 C285.491497,572.836394 277.042146,612.716942 258.405292,649.36729 C228.229039,648.373382 198.004503,648.911749 167.82825,648.207731 C202.687858,594.619539 244.451792,540.037439 244.596638,476.303105 Z" id="Shape" fill="#A4764E"></path>
                    </g>
                </g>
            </g>
        </g>
    </g>
</svg>